<?xml version="1.0" standalone="no"?>
<!DOCTYPE svg PUBLIC "-//W3C//DTD SVG 20010904//EN"
 "http://www.w3.org/TR/2001/REC-SVG-20010904/DTD/svg10.dtd">
<svg version="1.0" xmlns="http://www.w3.org/2000/svg"
 width="400.000000pt" height="400.000000pt" viewBox="0 0 400.000000 400.000000"
 preserveAspectRatio="xMidYMid meet">
<metadata>
Created by potrace 1.11, written by Peter Selinger 2001-2013
</metadata>
<g transform="translate(0.000000,400.000000) scale(0.100000,-0.100000)"
fill="#000000" stroke="none">
<path d="M695 2543 c-128 -28 -238 -132 -284 -270 -20 -58 -21 -85 -21 -393 0
-281 2 -330 14 -330 8 0 18 5 21 10 11 18 25 0 25 -31 0 -29 0 -29 29 -15 34
18 41 13 41 -31 0 -18 3 -33 8 -33 9 0 120 46 240 99 l93 41 1238 0 c1225 0
1240 0 1306 21 58 18 77 30 134 87 51 52 73 83 94 134 50 127 46 255 -15 378
-43 87 -214 256 -308 303 l-65 32 -1265 1 c-696 1 -1274 0 -1285 -3z m930
-323 c0 -20 -6 -26 -28 -28 -29 -4 -44 16 -33 44 4 10 15 14 33 12 22 -2 28
-8 28 -28z m1305 -165 l0 -195 -25 0 -25 0 0 195 0 195 25 0 25 0 0 -195z
m320 0 l0 -195 -30 0 c-20 0 -30 5 -30 15 0 12 -6 11 -32 -5 -41 -25 -74 -25
-114 -1 -82 50 -87 198 -8 260 35 27 93 28 128 0 l26 -20 0 70 0 71 30 0 30 0
0 -195z m-2362 79 c8 -14 10 -14 21 0 8 9 26 16 42 16 26 0 29 -4 29 -30 0
-27 -3 -30 -29 -30 -52 0 -61 -20 -61 -131 l0 -99 -30 0 -30 0 0 145 0 145 25
0 c13 0 28 -7 33 -16z m307 -6 c32 -25 55 -74 55 -118 l0 -30 -100 0 c-92 0
-100 -2 -100 -19 0 -22 44 -61 70 -61 10 0 29 9 43 20 29 23 77 27 77 7 0 -15
-34 -49 -67 -66 -53 -27 -133 -1 -169 54 -11 17 -17 47 -17 84 0 97 47 150
134 151 33 0 54 -6 74 -22z m171 -30 l32 -52 32 52 c28 46 35 52 66 52 l34 0
-27 -42 c-15 -24 -35 -54 -45 -67 -25 -33 -23 -44 22 -110 22 -32 40 -61 40
-65 0 -3 -15 -6 -32 -6 -29 0 -37 7 -63 50 l-29 50 -31 -50 c-26 -44 -34 -50
-62 -50 -18 0 -33 2 -33 5 0 3 21 35 46 71 l46 65 -46 69 c-25 37 -46 71 -46
74 0 3 15 6 33 6 28 0 36 -6 63 -52z m254 -93 l0 -145 -30 0 -30 0 0 145 0
145 30 0 30 0 0 -145z m250 128 c14 -9 28 -22 32 -27 4 -6 8 -64 8 -128 l0
-118 -25 0 c-19 0 -25 5 -25 22 0 21 0 21 -26 -3 -57 -53 -164 -17 -164 56 0
61 51 95 143 95 32 0 37 3 37 23 0 13 -5 28 -12 35 -19 19 -66 14 -85 -8 -20
-22 -73 -28 -73 -7 0 60 130 101 190 60z m161 -80 c12 -54 26 -102 30 -106 4
-5 14 24 23 65 29 128 34 138 67 138 23 0 30 -5 35 -27 4 -16 17 -64 29 -108
l23 -80 15 55 c9 30 19 71 22 90 12 66 15 70 46 70 16 0 29 -3 29 -7 0 -5 -12
-48 -26 -98 -13 -49 -30 -112 -37 -138 -12 -47 -13 -48 -47 -45 l-35 3 -24 93
c-13 50 -27 92 -30 92 -4 0 -18 -42 -32 -92 -25 -91 -27 -93 -57 -96 -26 -3
-34 1 -41 20 -10 26 -71 249 -71 261 0 4 13 7 29 7 29 0 30 -2 52 -97z m570
59 c71 -80 54 -204 -35 -246 -99 -47 -196 21 -196 137 0 97 56 151 149 144 46
-3 59 -9 82 -35z m149 22 c0 -14 2 -14 22 0 12 9 33 16 45 16 19 0 23 -5 23
-30 0 -26 -4 -30 -27 -30 -52 0 -63 -23 -63 -132 l0 -98 -30 0 -30 0 0 145 0
145 30 0 c20 0 30 -5 30 -16z m640 -223 c12 -23 5 -47 -16 -55 -21 -8 -42 3
-49 25 -14 42 44 68 65 30z"/>
<path d="M3071 2078 c-32 -33 -38 -85 -15 -128 16 -29 25 -36 55 -38 30 -3 41
2 58 24 65 82 -29 217 -98 142z"/>
<path d="M1070 2078 c-36 -39 -27 -48 50 -48 62 0 69 2 63 18 -19 54 -76 69
-113 30z"/>
<path d="M1798 1980 c-27 -3 -53 -11 -59 -17 -15 -15 -2 -51 22 -58 30 -10 78
14 85 41 9 35 3 40 -48 34z"/>
<path d="M2460 2078 c-27 -30 -35 -63 -24 -106 18 -72 92 -91 127 -32 55 92
-35 211 -103 138z"/>
</g>
</svg>
